<svg xmlns="http://www.w3.org/2000/svg" xmlns:xlink="http://www.w3.org/1999/xlink" version="1.1" data-diagram-type="SEQUENCE" style="width:2021px;height:2051px;background:#FFFFFF;" width="2021px" height="2051px" viewBox="0 0 2021 2051" zoomAndPan="magnify" preserveAspectRatio="none" contentStyleType="text/css"><?plantuml 1.2026.7beta6?><defs/><g font-family="sans-serif" lengthAdjust="spacing"><rect x="314.973" y="11" width="223.088" height="2025.859" fill="#DDD" style="stroke:#181818;stroke-width:0.5;"/><text x="326.973" y="23.067" fill="#000" font-size="13" textLength="199.088" font-weight="700">Interface Web (Client Side)</text><rect x="847.371" y="11" width="153.105" height="2025.859" fill="#DDD" style="stroke:#181818;stroke-width:0.5;"/><text x="859.371" y="23.067" fill="#000" font-size="13" textLength="129.105" font-weight="700">Servidor Backend</text><g><title>M.dico . Operador</title><rect x="69.584" y="105.266" width="8" height="1925.594" fill="#000" fill-opacity="0"/><line x1="73.084" y1="105.266" x2="73.084" y2="2030.859" style="stroke:#64748B;stroke-width:0.5;stroke-dasharray:5,5;"/></g><g><title>Navegador</title><rect x="423.017" y="105.266" width="8" height="1925.594" fill="#000" fill-opacity="0"/><line x1="426.517" y1="105.266" x2="426.517" y2="2030.859" style="stroke:#64748B;stroke-width:0.5;stroke-dasharray:5,5;"/></g><g><title></title><rect x="421.517" y="471.414" width="10" height="1541.445" fill="#F1F5F9" style="stroke:#181818;stroke-width:1;"/></g><g><title>Flask Server</title><rect x="920.424" y="105.266" width="8" height="1925.594" fill="#000" fill-opacity="0"/><line x1="923.924" y1="105.266" x2="923.924" y2="2030.859" style="stroke:#64748B;stroke-width:0.5;stroke-dasharray:5,5;"/></g><g><title></title><rect x="918.924" y="156.398" width="10" height="243.914" fill="#F1F5F9" style="stroke:#181818;stroke-width:1;"/></g><g><title></title><rect x="918.924" y="540.352" width="10" height="124.875" fill="#F1F5F9" style="stroke:#181818;stroke-width:1;"/></g><g><title></title><rect x="918.924" y="864.367" width="10" height="27.969" fill="#F1F5F9" style="stroke:#181818;stroke-width:1;"/></g><g><title></title><rect x="918.924" y="1198.219" width="10" height="208.977" fill="#F1F5F9" style="stroke:#181818;stroke-width:1;"/></g><g><title></title><rect x="918.924" y="1491.297" width="10" height="27.969" fill="#F1F5F9" style="stroke:#181818;stroke-width:1;"/></g><g><title></title><rect x="918.924" y="1547.234" width="10" height="273.781" fill="#F1F5F9" style="stroke:#181818;stroke-width:1;"/></g><g><title>Broker MQTT</title><rect x="1330.445" y="105.266" width="8" height="1925.594" fill="#000" fill-opacity="0"/><line x1="1333.945" y1="105.266" x2="1333.945" y2="2030.859" style="stroke:#64748B;stroke-width:0.5;stroke-dasharray:5,5;"/></g><g><title>Sensor IoT</title><rect x="1750.617" y="105.266" width="8" height="1925.594" fill="#000" fill-opacity="0"/><line x1="1754.117" y1="105.266" x2="1754.117" y2="2030.859" style="stroke:#64748B;stroke-width:0.5;stroke-dasharray:5,5;"/></g><g><title></title><rect x="1749.117" y="184.367" width="10" height="1846.492" fill="#F1F5F9" style="stroke:#181818;stroke-width:1;"/></g><g><title></title><rect x="1754.117" y="716.359" width="10" height="453.891" fill="#F1F5F9" style="stroke:#181818;stroke-width:1;"/></g><text x="10" y="102.2" fill="#FFF" font-size="13" textLength="120.167">Médico / Operador</text><ellipse cx="73.084" cy="38.633" rx="8" ry="8" fill="#1E3A8A" style="stroke:#1D4ED8;stroke-width:0.5;"/><path d="M73.084,46.633 L73.084,73.633 M60.084,54.633 L86.084,54.633 M73.084,73.633 L60.084,88.633 M73.084,73.633 L86.084,88.633" style="stroke:#1D4ED8;stroke-width:0.5;" fill="none"/><rect x="379.676" y="60" width="93.682" height="44.266" fill="#EFF6FF" style="stroke:#3B82F6;stroke-width:0.5;" rx="2.5" ry="2.5"/><text x="390.942" y="79.067" fill="#1E3A8A" font-size="13" textLength="71.151">Navegador</text><text x="386.676" y="94.2" fill="#1E3A8A" font-size="13" textLength="79.682">(index.html)</text><rect x="876.864" y="60" width="94.12" height="44.266" fill="#EFF6FF" style="stroke:#3B82F6;stroke-width:0.5;" rx="2.5" ry="2.5"/><text x="883.864" y="79.067" fill="#1E3A8A" font-size="13" textLength="80.12">Flask Server</text><text x="888.237" y="94.2" fill="#1E3A8A" font-size="13" textLength="71.373">(server.py)</text><rect x="1284.67" y="60" width="98.551" height="44.266" fill="#EFF6FF" style="stroke:#3B82F6;stroke-width:0.5;" rx="2.5" ry="2.5"/><text x="1291.67" y="79.067" fill="#1E3A8A" font-size="13" textLength="84.551">Broker MQTT</text><text x="1296.776" y="94.2" fill="#1E3A8A" font-size="13" textLength="74.337">(Mosquitto)</text><rect x="1712.906" y="60" width="82.421" height="44.266" fill="#EFF6FF" style="stroke:#3B82F6;stroke-width:0.5;" rx="2.5" ry="2.5"/><text x="1719.906" y="79.067" fill="#1E3A8A" font-size="13" textLength="68.421">Sensor IoT</text><text x="1728.622" y="94.2" fill="#1E3A8A" font-size="13" textLength="50.991">(ESP32)</text><rect x="10" y="133.832" width="2000.037" height="3" fill="#EEE" style="stroke:#EEE;stroke-width:1;"/><line x1="10" y1="133.832" x2="2010.037" y2="133.832" style="stroke:#000;stroke-width:1;"/><line x1="10" y1="136.832" x2="2010.037" y2="136.832" style="stroke:#000;stroke-width:1;"/><rect x="912.587" y="123.266" width="194.864" height="23.133" fill="#EEE" style="stroke:#000;stroke-width:2;"/><text x="918.587" y="139.333" fill="#000" font-size="13" textLength="176.338" font-weight="700">Inicialização do Sistema</text><polygon points="1321.945,172.367,1331.945,176.367,1321.945,180.367" fill="#2563EB" style="stroke:#2563EB;stroke-width:1;stroke-linejoin:miter;stroke-miterlimit:10;"/><line x1="928.924" y1="176.367" x2="1327.945" y2="176.367" style="stroke:#2563EB;stroke-width:1;"/><text x="935.924" y="171.537" fill="#475569" font-size="12" textLength="386.021">Conecta na Porta 1883 e assina 'exame/status' e 'exame/dados'</text><polygon points="1344.945,200.336,1334.945,204.336,1344.945,208.336" fill="#2563EB" style="stroke:#2563EB;stroke-width:1;stroke-linejoin:miter;stroke-miterlimit:10;"/><line x1="1338.945" y1="204.336" x2="1748.117" y2="204.336" style="stroke:#2563EB;stroke-width:1;"/><text x="1350.945" y="199.506" fill="#475569" font-size="12" textLength="335.959">Publica status inicial 'AGUARDANDO' em 'exame/status'</text><polygon points="939.924,228.305,929.924,232.305,939.924,236.305" fill="#2563EB" style="stroke:#2563EB;stroke-width:1;stroke-linejoin:miter;stroke-miterlimit:10;"/><line x1="933.924" y1="232.305" x2="1332.945" y2="232.305" style="stroke:#2563EB;stroke-width:1;"/><text x="945.924" y="227.475" fill="#475569" font-size="12" textLength="189.598">Repassa status 'AGUARDANDO'</text><line x1="928.924" y1="260.273" x2="970.924" y2="260.273" style="stroke:#2563EB;stroke-width:1;"/><line x1="970.924" y1="260.273" x2="970.924" y2="273.273" style="stroke:#2563EB;stroke-width:1;"/><line x1="929.924" y1="273.273" x2="970.924" y2="273.273" style="stroke:#2563EB;stroke-width:1;"/><polygon points="939.924,269.273,929.924,273.273,939.924,277.273" fill="#2563EB" style="stroke:#2563EB;stroke-width:1;stroke-linejoin:miter;stroke-miterlimit:10;"/><text x="935.924" y="255.443" fill="#475569" font-size="12" textLength="336.996">Atualiza estado global: status_esp32 = "AGUARDANDO"</text><rect x="10" y="301.84" width="2000.037" height="3" fill="#EEE" style="stroke:#EEE;stroke-width:1;"/><line x1="10" y1="301.84" x2="2010.037" y2="301.84" style="stroke:#000;stroke-width:1;"/><line x1="10" y1="304.84" x2="2010.037" y2="304.84" style="stroke:#000;stroke-width:1;"/><rect x="933.105" y="291.273" width="153.826" height="23.133" fill="#EEE" style="stroke:#000;stroke-width:2;"/><text x="939.105" y="307.34" fill="#000" font-size="13" textLength="135.3" font-weight="700">Acesso à Interface</text><polygon points="414.517,340.375,424.517,344.375,414.517,348.375" fill="#2563EB" style="stroke:#2563EB;stroke-width:1;stroke-linejoin:miter;stroke-miterlimit:10;"/><line x1="73.084" y1="344.375" x2="420.517" y2="344.375" style="stroke:#2563EB;stroke-width:1;"/><text x="80.084" y="339.545" fill="#475569" font-size="12" textLength="171.07">Acessa http://localhost:5000</text><polygon points="906.924,368.344,916.924,372.344,906.924,376.344" fill="#2563EB" style="stroke:#2563EB;stroke-width:1;stroke-linejoin:miter;stroke-miterlimit:10;"/><line x1="426.517" y1="372.344" x2="912.924" y2="372.344" style="stroke:#2563EB;stroke-width:1;"/><text x="433.517" y="367.514" fill="#475569" font-size="12" textLength="32.068">GET /</text><polygon points="437.517,396.313,427.517,400.313,437.517,404.313" fill="#2563EB" style="stroke:#2563EB;stroke-width:1;stroke-linejoin:miter;stroke-miterlimit:10;"/><line x1="431.517" y1="400.313" x2="917.924" y2="400.313" style="stroke:#2563EB;stroke-width:1;stroke-dasharray:2,2;"/><text x="443.517" y="395.482" fill="#475569" font-size="12" textLength="263.162">Retorna HTML + CSS + JavaScript (UI ativa)</text><rect x="10" y="428.879" width="2000.037" height="3" fill="#EEE" style="stroke:#EEE;stroke-width:1;"/><line x1="10" y1="428.879" x2="2010.037" y2="428.879" style="stroke:#000;stroke-width:1;"/><line x1="10" y1="431.879" x2="2010.037" y2="431.879" style="stroke:#000;stroke-width:1;"/><rect x="917.839" y="418.313" width="184.358" height="23.133" fill="#EEE" style="stroke:#000;stroke-width:2;"/><text x="923.839" y="434.379" fill="#000" font-size="13" textLength="165.833" font-weight="700">Inicialização do Exame</text><polygon points="409.517,467.414,419.517,471.414,409.517,475.414" fill="#2563EB" style="stroke:#2563EB;stroke-width:1;stroke-linejoin:miter;stroke-miterlimit:10;"/><line x1="73.084" y1="471.414" x2="415.517" y2="471.414" style="stroke:#2563EB;stroke-width:1;"/><text x="80.084" y="466.584" fill="#475569" font-size="12" textLength="309.574">Digita nome do paciente e clica em "Iniciar Exame"</text><line x1="431.517" y1="499.383" x2="473.517" y2="499.383" style="stroke:#2563EB;stroke-width:1;"/><line x1="473.517" y1="499.383" x2="473.517" y2="512.383" style="stroke:#2563EB;stroke-width:1;"/><line x1="432.517" y1="512.383" x2="473.517" y2="512.383" style="stroke:#2563EB;stroke-width:1;"/><polygon points="442.517,508.383,432.517,512.383,442.517,516.383" fill="#2563EB" style="stroke:#2563EB;stroke-width:1;stroke-linejoin:miter;stroke-miterlimit:10;"/><text x="438.517" y="494.553" fill="#475569" font-size="12" textLength="273.252">Bloqueia botão, define UI como "GRAVANDO"</text><polygon points="906.924,536.352,916.924,540.352,906.924,544.352" fill="#2563EB" style="stroke:#2563EB;stroke-width:1;stroke-linejoin:miter;stroke-miterlimit:10;"/><line x1="431.517" y1="540.352" x2="912.924" y2="540.352" style="stroke:#2563EB;stroke-width:1;"/><text x="438.517" y="535.521" fill="#475569" font-size="12" textLength="258.416">POST /api/iniciar { "nome_paciente": "..." }</text><line x1="928.924" y1="568.32" x2="970.924" y2="568.32" style="stroke:#2563EB;stroke-width:1;"/><line x1="970.924" y1="568.32" x2="970.924" y2="581.32" style="stroke:#2563EB;stroke-width:1;"/><line x1="929.924" y1="581.32" x2="970.924" y2="581.32" style="stroke:#2563EB;stroke-width:1;"/><polygon points="939.924,577.32,929.924,581.32,939.924,585.32" fill="#2563EB" style="stroke:#2563EB;stroke-width:1;stroke-linejoin:miter;stroke-miterlimit:10;"/><text x="935.924" y="563.49" fill="#475569" font-size="12" textLength="360.199">Limpa buffer antigo e define exame_em_andamento = True</text><polygon points="1321.945,605.289,1331.945,609.289,1321.945,613.289" fill="#2563EB" style="stroke:#2563EB;stroke-width:1;stroke-linejoin:miter;stroke-miterlimit:10;"/><line x1="928.924" y1="609.289" x2="1327.945" y2="609.289" style="stroke:#2563EB;stroke-width:1;"/><text x="935.924" y="604.459" fill="#475569" font-size="12" textLength="272.877">Publica "INICIAR" no tópico 'exame/comando'</text><polygon points="1737.117,633.258,1747.117,637.258,1737.117,641.258" fill="#2563EB" style="stroke:#2563EB;stroke-width:1;stroke-linejoin:miter;stroke-miterlimit:10;"/><line x1="1333.945" y1="637.258" x2="1743.117" y2="637.258" style="stroke:#2563EB;stroke-width:1;"/><text x="1340.945" y="632.428" fill="#475569" font-size="12" textLength="169.283">Repassa comando "INICIAR"</text><polygon points="442.517,661.227,432.517,665.227,442.517,669.227" fill="#2563EB" style="stroke:#2563EB;stroke-width:1;stroke-linejoin:miter;stroke-miterlimit:10;"/><line x1="436.517" y1="665.227" x2="917.924" y2="665.227" style="stroke:#2563EB;stroke-width:1;stroke-dasharray:2,2;"/><text x="448.517" y="660.396" fill="#475569" font-size="12" textLength="198.973">Retorna JSON { "sucesso": true }</text><rect x="10" y="693.793" width="2000.037" height="3" fill="#EEE" style="stroke:#EEE;stroke-width:1;"/><line x1="10" y1="693.793" x2="2010.037" y2="693.793" style="stroke:#000;stroke-width:1;"/><line x1="10" y1="696.793" x2="2010.037" y2="696.793" style="stroke:#000;stroke-width:1;"/><rect x="819.898" y="683.227" width="380.241" height="23.133" fill="#EEE" style="stroke:#000;stroke-width:2;"/><text x="825.898" y="699.293" fill="#000" font-size="13" textLength="361.715" font-weight="700">Loop de Coleta (15 segundos) e Polling de Status</text><line x1="1764.117" y1="736.328" x2="1806.117" y2="736.328" style="stroke:#2563EB;stroke-width:1;"/><line x1="1806.117" y1="736.328" x2="1806.117" y2="749.328" style="stroke:#2563EB;stroke-width:1;"/><line x1="1765.117" y1="749.328" x2="1806.117" y2="749.328" style="stroke:#2563EB;stroke-width:1;"/><polygon points="1775.117,745.328,1765.117,749.328,1775.117,753.328" fill="#2563EB" style="stroke:#2563EB;stroke-width:1;stroke-linejoin:miter;stroke-miterlimit:10;"/><text x="1771.117" y="731.498" fill="#475569" font-size="12" textLength="231.92">Altera estado interno para GRAVANDO</text><polygon points="1344.945,773.297,1334.945,777.297,1344.945,781.297" fill="#2563EB" style="stroke:#2563EB;stroke-width:1;stroke-linejoin:miter;stroke-miterlimit:10;"/><line x1="1338.945" y1="777.297" x2="1753.117" y2="777.297" style="stroke:#2563EB;stroke-width:1;"/><text x="1350.945" y="772.467" fill="#475569" font-size="12" textLength="238.541">Publica 'GRAVANDO' em 'exame/status'</text><polygon points="934.924,801.266,924.924,805.266,934.924,809.266" fill="#2563EB" style="stroke:#2563EB;stroke-width:1;stroke-linejoin:miter;stroke-miterlimit:10;"/><line x1="928.924" y1="805.266" x2="1332.945" y2="805.266" style="stroke:#2563EB;stroke-width:1;"/><text x="940.924" y="800.436" fill="#475569" font-size="12" textLength="171.574">Repassa status 'GRAVANDO'</text><path d="M410.517,817.266 L487.141,817.266 L487.141,824.398 L477.141,834.398 L410.517,834.398 L410.517,817.266" style="stroke:#94A3B8;stroke-width:1.5;" fill="#F8FAFC"/><rect x="410.517" y="817.266" width="534.406" height="124.039" fill="none" style="stroke:#94A3B8;stroke-width:1.5;"/><text x="425.517" y="830.333" fill="#000" font-size="13" textLength="31.624" font-weight="700">loop</text><text x="502.141" y="830.404" fill="#0F172A" font-size="12" textLength="402.029" font-weight="700">[A cada 800ms (Enquanto exame_em_andamento == True)]</text><polygon points="906.924,860.367,916.924,864.367,906.924,868.367" fill="#2563EB" style="stroke:#2563EB;stroke-width:1;stroke-linejoin:miter;stroke-miterlimit:10;"/><line x1="431.517" y1="864.367" x2="912.924" y2="864.367" style="stroke:#2563EB;stroke-width:1;"/><text x="438.517" y="859.537" fill="#475569" font-size="12" textLength="91.289">GET /api/status</text><polygon points="442.517,888.336,432.517,892.336,442.517,896.336" fill="#2563EB" style="stroke:#2563EB;stroke-width:1;stroke-linejoin:miter;stroke-miterlimit:10;"/><line x1="436.517" y1="892.336" x2="917.924" y2="892.336" style="stroke:#2563EB;stroke-width:1;stroke-dasharray:2,2;"/><text x="448.517" y="887.506" fill="#475569" font-size="12" textLength="463.406">Retorna JSON { status_esp32, amostras_recebidas, exame_em_andamento }</text><line x1="431.517" y1="920.305" x2="473.517" y2="920.305" style="stroke:#2563EB;stroke-width:1;"/><line x1="473.517" y1="920.305" x2="473.517" y2="933.305" style="stroke:#2563EB;stroke-width:1;"/><line x1="432.517" y1="933.305" x2="473.517" y2="933.305" style="stroke:#2563EB;stroke-width:1;"/><polygon points="442.517,929.305,432.517,933.305,442.517,937.305" fill="#2563EB" style="stroke:#2563EB;stroke-width:1;stroke-linejoin:miter;stroke-miterlimit:10;"/><text x="438.517" y="915.475" fill="#475569" font-size="12" textLength="284.373">Atualiza Badge e Contador de amostras na tela</text><line x1="1764.117" y1="989.242" x2="1806.117" y2="989.242" style="stroke:#2563EB;stroke-width:1;"/><line x1="1806.117" y1="989.242" x2="1806.117" y2="1002.242" style="stroke:#2563EB;stroke-width:1;"/><line x1="1765.117" y1="1002.242" x2="1806.117" y2="1002.242" style="stroke:#2563EB;stroke-width:1;"/><polygon points="1775.117,998.242,1765.117,1002.242,1775.117,1006.242" fill="#2563EB" style="stroke:#2563EB;stroke-width:1;stroke-linejoin:miter;stroke-miterlimit:10;"/><text x="1771.117" y="970.443" fill="#475569" font-size="12" textLength="200.361">Coleta amostras do MPU a 200Hz</text><text x="1771.117" y="984.412" fill="#475569" font-size="12" textLength="208.313">(Guarda no buffer interno da RAM)</text><rect x="10" y="1030.809" width="2000.037" height="3" fill="#EEE" style="stroke:#EEE;stroke-width:1;"/><line x1="10" y1="1030.809" x2="2010.037" y2="1030.809" style="stroke:#000;stroke-width:1;"/><line x1="10" y1="1033.809" x2="2010.037" y2="1033.809" style="stroke:#000;stroke-width:1;"/><rect x="861.266" y="1020.242" width="297.505" height="23.133" fill="#EEE" style="stroke:#000;stroke-width:2;"/><text x="867.266" y="1036.309" fill="#000" font-size="13" textLength="278.979" font-weight="700">Transmissão de Dados Descarregados</text><line x1="1764.117" y1="1073.344" x2="1806.117" y2="1073.344" style="stroke:#2563EB;stroke-width:1;"/><line x1="1806.117" y1="1073.344" x2="1806.117" y2="1086.344" style="stroke:#2563EB;stroke-width:1;"/><line x1="1765.117" y1="1086.344" x2="1806.117" y2="1086.344" style="stroke:#2563EB;stroke-width:1;"/><polygon points="1775.117,1082.344,1765.117,1086.344,1775.117,1090.344" fill="#2563EB" style="stroke:#2563EB;stroke-width:1;stroke-linejoin:miter;stroke-miterlimit:10;"/><text x="1771.117" y="1068.514" fill="#475569" font-size="12" textLength="188.309">Conclui 15 segundos de exame</text><polygon points="1344.945,1110.313,1334.945,1114.313,1344.945,1118.313" fill="#2563EB" style="stroke:#2563EB;stroke-width:1;stroke-linejoin:miter;stroke-miterlimit:10;"/><line x1="1338.945" y1="1114.313" x2="1753.117" y2="1114.313" style="stroke:#2563EB;stroke-width:1;"/><text x="1350.945" y="1109.482" fill="#475569" font-size="12" textLength="282.545">Publica 'ENVIANDO_DADOS' em 'exame/status'</text><polygon points="934.924,1138.281,924.924,1142.281,934.924,1146.281" fill="#2563EB" style="stroke:#2563EB;stroke-width:1;stroke-linejoin:miter;stroke-miterlimit:10;"/><line x1="928.924" y1="1142.281" x2="1332.945" y2="1142.281" style="stroke:#2563EB;stroke-width:1;"/><text x="940.924" y="1137.451" fill="#475569" font-size="12" textLength="215.578">Repassa status 'ENVIANDO_DADOS'</text><polygon points="1344.945,1166.25,1334.945,1170.25,1344.945,1174.25" fill="#2563EB" style="stroke:#2563EB;stroke-width:1;stroke-linejoin:miter;stroke-miterlimit:10;"/><line x1="1338.945" y1="1170.25" x2="1753.117" y2="1170.25" style="stroke:#2563EB;stroke-width:1;"/><text x="1350.945" y="1165.42" fill="#475569" font-size="12" textLength="391.172">Envia Payload Binário (struct de floats X, Y, Z) em 'exame/dados'</text><polygon points="939.924,1194.219,929.924,1198.219,939.924,1202.219" fill="#2563EB" style="stroke:#2563EB;stroke-width:1;stroke-linejoin:miter;stroke-miterlimit:10;"/><line x1="933.924" y1="1198.219" x2="1332.945" y2="1198.219" style="stroke:#2563EB;stroke-width:1;"/><text x="945.924" y="1193.389" fill="#475569" font-size="12" textLength="212.01">Repassa pacotes binários de dados</text><line x1="928.924" y1="1226.188" x2="970.924" y2="1226.188" style="stroke:#2563EB;stroke-width:1;"/><line x1="970.924" y1="1226.188" x2="970.924" y2="1239.188" style="stroke:#2563EB;stroke-width:1;"/><line x1="929.924" y1="1239.188" x2="970.924" y2="1239.188" style="stroke:#2563EB;stroke-width:1;"/><polygon points="939.924,1235.188,929.924,1239.188,939.924,1243.188" fill="#2563EB" style="stroke:#2563EB;stroke-width:1;stroke-linejoin:miter;stroke-miterlimit:10;"/><text x="935.924" y="1221.357" fill="#475569" font-size="12" textLength="374.777">Desempacota bytes via struct.unpack() e popula dados_buffer</text><rect x="10" y="1267.754" width="2000.037" height="3" fill="#EEE" style="stroke:#EEE;stroke-width:1;"/><line x1="10" y1="1267.754" x2="2010.037" y2="1267.754" style="stroke:#000;stroke-width:1;"/><line x1="10" y1="1270.754" x2="2010.037" y2="1270.754" style="stroke:#000;stroke-width:1;"/><rect x="874.52" y="1257.188" width="270.998" height="23.133" fill="#EEE" style="stroke:#000;stroke-width:2;"/><text x="880.52" y="1273.254" fill="#000" font-size="13" textLength="252.472" font-weight="700">Finalização e Gravação de Arquivo</text><polygon points="1344.945,1306.289,1334.945,1310.289,1344.945,1314.289" fill="#2563EB" style="stroke:#2563EB;stroke-width:1;stroke-linejoin:miter;stroke-miterlimit:10;"/><line x1="1338.945" y1="1310.289" x2="1748.117" y2="1310.289" style="stroke:#2563EB;stroke-width:1;"/><text x="1350.945" y="1305.459" fill="#475569" font-size="12" textLength="278.531">Publica 'LOTE_CONCLUIDO' em 'exame/status'</text><polygon points="939.924,1334.258,929.924,1338.258,939.924,1342.258" fill="#2563EB" style="stroke:#2563EB;stroke-width:1;stroke-linejoin:miter;stroke-miterlimit:10;"/><line x1="933.924" y1="1338.258" x2="1332.945" y2="1338.258" style="stroke:#2563EB;stroke-width:1;"/><text x="945.924" y="1333.428" fill="#475569" font-size="12" textLength="211.564">Repassa status 'LOTE_CONCLUIDO'</text><line x1="928.924" y1="1366.227" x2="970.924" y2="1366.227" style="stroke:#2563EB;stroke-width:1;"/><line x1="970.924" y1="1366.227" x2="970.924" y2="1379.227" style="stroke:#2563EB;stroke-width:1;"/><line x1="929.924" y1="1379.227" x2="970.924" y2="1379.227" style="stroke:#2563EB;stroke-width:1;"/><polygon points="939.924,1375.227,929.924,1379.227,939.924,1383.227" fill="#2563EB" style="stroke:#2563EB;stroke-width:1;stroke-linejoin:miter;stroke-miterlimit:10;"/><text x="935.924" y="1361.396" fill="#475569" font-size="12" textLength="347.35">Executa salvar_dados_csv() -> Gera arquivo .csv no disco</text><line x1="928.924" y1="1407.195" x2="970.924" y2="1407.195" style="stroke:#2563EB;stroke-width:1;"/><line x1="970.924" y1="1407.195" x2="970.924" y2="1420.195" style="stroke:#2563EB;stroke-width:1;"/><line x1="923.924" y1="1420.195" x2="970.924" y2="1420.195" style="stroke:#2563EB;stroke-width:1;"/><polygon points="933.924,1416.195,923.924,1420.195,933.924,1424.195" fill="#2563EB" style="stroke:#2563EB;stroke-width:1;stroke-linejoin:miter;stroke-miterlimit:10;"/><text x="935.924" y="1402.365" fill="#475569" font-size="12" textLength="232.529">Define exame_em_andamento = False</text><rect x="10" y="1448.762" width="2000.037" height="3" fill="#EEE" style="stroke:#EEE;stroke-width:1;"/><line x1="10" y1="1448.762" x2="2010.037" y2="1448.762" style="stroke:#000;stroke-width:1;"/><line x1="10" y1="1451.762" x2="2010.037" y2="1451.762" style="stroke:#000;stroke-width:1;"/><rect x="817.718" y="1438.195" width="384.602" height="23.133" fill="#EEE" style="stroke:#000;stroke-width:2;"/><text x="823.718" y="1454.262" fill="#000" font-size="13" textLength="366.076" font-weight="700">Processamento Matemático (DSP) e Renderização</text><polygon points="906.924,1487.297,916.924,1491.297,906.924,1495.297" fill="#2563EB" style="stroke:#2563EB;stroke-width:1;stroke-linejoin:miter;stroke-miterlimit:10;"/><line x1="431.517" y1="1491.297" x2="912.924" y2="1491.297" style="stroke:#2563EB;stroke-width:1;"/><text x="438.517" y="1486.467" fill="#475569" font-size="12" textLength="328.576">GET /api/status (Último loop detecta exame concluído)</text><polygon points="442.517,1515.266,432.517,1519.266,442.517,1523.266" fill="#2563EB" style="stroke:#2563EB;stroke-width:1;stroke-linejoin:miter;stroke-miterlimit:10;"/><line x1="436.517" y1="1519.266" x2="917.924" y2="1519.266" style="stroke:#2563EB;stroke-width:1;stroke-dasharray:2,2;"/><text x="448.517" y="1514.436" fill="#475569" font-size="12" textLength="303.879">Retorna JSON { exame_em_andamento: false, ... }</text><polygon points="906.924,1543.234,916.924,1547.234,906.924,1551.234" fill="#2563EB" style="stroke:#2563EB;stroke-width:1;stroke-linejoin:miter;stroke-miterlimit:10;"/><line x1="431.517" y1="1547.234" x2="912.924" y2="1547.234" style="stroke:#2563EB;stroke-width:1;"/><text x="438.517" y="1542.404" fill="#475569" font-size="12" textLength="117.193">GET /api/resultados</text><line x1="928.924" y1="1575.203" x2="970.924" y2="1575.203" style="stroke:#2563EB;stroke-width:1;"/><line x1="970.924" y1="1575.203" x2="970.924" y2="1588.203" style="stroke:#2563EB;stroke-width:1;"/><line x1="929.924" y1="1588.203" x2="970.924" y2="1588.203" style="stroke:#2563EB;stroke-width:1;"/><polygon points="939.924,1584.203,929.924,1588.203,939.924,1592.203" fill="#2563EB" style="stroke:#2563EB;stroke-width:1;stroke-linejoin:miter;stroke-miterlimit:10;"/><text x="935.924" y="1570.373" fill="#475569" font-size="12" textLength="148.406">Lê o arquivo CSV gerado</text><line x1="928.924" y1="1616.172" x2="970.924" y2="1616.172" style="stroke:#2563EB;stroke-width:1;"/><line x1="970.924" y1="1616.172" x2="970.924" y2="1629.172" style="stroke:#2563EB;stroke-width:1;"/><line x1="929.924" y1="1629.172" x2="970.924" y2="1629.172" style="stroke:#2563EB;stroke-width:1;"/><polygon points="939.924,1625.172,929.924,1629.172,939.924,1633.172" fill="#2563EB" style="stroke:#2563EB;stroke-width:1;stroke-linejoin:miter;stroke-miterlimit:10;"/><text x="935.924" y="1611.342" fill="#475569" font-size="12" textLength="314.133">Aplica Remoção de DC Offset (Sinal menos a Média)</text><line x1="928.924" y1="1657.141" x2="970.924" y2="1657.141" style="stroke:#2563EB;stroke-width:1;"/><line x1="970.924" y1="1657.141" x2="970.924" y2="1670.141" style="stroke:#2563EB;stroke-width:1;"/><line x1="929.924" y1="1670.141" x2="970.924" y2="1670.141" style="stroke:#2563EB;stroke-width:1;"/><polygon points="939.924,1666.141,929.924,1670.141,939.924,1674.141" fill="#2563EB" style="stroke:#2563EB;stroke-width:1;stroke-linejoin:miter;stroke-miterlimit:10;"/><text x="935.924" y="1652.311" fill="#475569" font-size="12" textLength="377.01">Calcula Métricas (Amplitudes médias e Cruzamentos por Zero)</text><line x1="928.924" y1="1698.109" x2="970.924" y2="1698.109" style="stroke:#2563EB;stroke-width:1;"/><line x1="970.924" y1="1698.109" x2="970.924" y2="1711.109" style="stroke:#2563EB;stroke-width:1;"/><line x1="929.924" y1="1711.109" x2="970.924" y2="1711.109" style="stroke:#2563EB;stroke-width:1;"/><polygon points="939.924,1707.109,929.924,1711.109,939.924,1715.109" fill="#2563EB" style="stroke:#2563EB;stroke-width:1;stroke-linejoin:miter;stroke-miterlimit:10;"/><text x="935.924" y="1693.279" fill="#475569" font-size="12" textLength="283.061">Executa FFT (scipy.fft) para extrair frequências</text><line x1="928.924" y1="1739.078" x2="970.924" y2="1739.078" style="stroke:#2563EB;stroke-width:1;"/><line x1="970.924" y1="1739.078" x2="970.924" y2="1752.078" style="stroke:#2563EB;stroke-width:1;"/><line x1="929.924" y1="1752.078" x2="970.924" y2="1752.078" style="stroke:#2563EB;stroke-width:1;"/><polygon points="939.924,1748.078,929.924,1752.078,939.924,1756.078" fill="#2563EB" style="stroke:#2563EB;stroke-width:1;stroke-linejoin:miter;stroke-miterlimit:10;"/><text x="935.924" y="1734.248" fill="#475569" font-size="12" textLength="227.373">Filtra banda biológica (0.5 Hz - 25 Hz)</text><line x1="928.924" y1="1780.047" x2="970.924" y2="1780.047" style="stroke:#2563EB;stroke-width:1;"/><line x1="970.924" y1="1780.047" x2="970.924" y2="1793.047" style="stroke:#2563EB;stroke-width:1;"/><line x1="929.924" y1="1793.047" x2="970.924" y2="1793.047" style="stroke:#2563EB;stroke-width:1;"/><polygon points="939.924,1789.047,929.924,1793.047,939.924,1797.047" fill="#2563EB" style="stroke:#2563EB;stroke-width:1;stroke-linejoin:miter;stroke-miterlimit:10;"/><text x="935.924" y="1775.217" fill="#475569" font-size="12" textLength="350.42">Realiza Subamostragem dos dados para otimização visual</text><polygon points="442.517,1817.016,432.517,1821.016,442.517,1825.016" fill="#2563EB" style="stroke:#2563EB;stroke-width:1;stroke-linejoin:miter;stroke-miterlimit:10;"/><line x1="436.517" y1="1821.016" x2="917.924" y2="1821.016" style="stroke:#2563EB;stroke-width:1;stroke-dasharray:2,2;"/><text x="448.517" y="1816.186" fill="#475569" font-size="12" textLength="358.506">Retorna JSON completo com vetores de tempo, sinais e FFT</text><line x1="431.517" y1="1848.984" x2="473.517" y2="1848.984" style="stroke:#2563EB;stroke-width:1;"/><line x1="473.517" y1="1848.984" x2="473.517" y2="1861.984" style="stroke:#2563EB;stroke-width:1;"/><line x1="432.517" y1="1861.984" x2="473.517" y2="1861.984" style="stroke:#2563EB;stroke-width:1;"/><polygon points="442.517,1857.984,432.517,1861.984,442.517,1865.984" fill="#2563EB" style="stroke:#2563EB;stroke-width:1;stroke-linejoin:miter;stroke-miterlimit:10;"/><text x="438.517" y="1844.154" fill="#475569" font-size="12" textLength="395.766">Calcula Classificação Clínica Automatizada (Parkinson / Essencial)</text><line x1="431.517" y1="1889.953" x2="473.517" y2="1889.953" style="stroke:#2563EB;stroke-width:1;"/><line x1="473.517" y1="1889.953" x2="473.517" y2="1902.953" style="stroke:#2563EB;stroke-width:1;"/><line x1="432.517" y1="1902.953" x2="473.517" y2="1902.953" style="stroke:#2563EB;stroke-width:1;"/><polygon points="442.517,1898.953,432.517,1902.953,442.517,1906.953" fill="#2563EB" style="stroke:#2563EB;stroke-width:1;stroke-linejoin:miter;stroke-miterlimit:10;"/><text x="438.517" y="1885.123" fill="#475569" font-size="12" textLength="381.996">renderizarLinhaTempoSVG() -> Desenha as 3 curvas temporais</text><line x1="431.517" y1="1930.922" x2="473.517" y2="1930.922" style="stroke:#2563EB;stroke-width:1;"/><line x1="473.517" y1="1930.922" x2="473.517" y2="1943.922" style="stroke:#2563EB;stroke-width:1;"/><line x1="432.517" y1="1943.922" x2="473.517" y2="1943.922" style="stroke:#2563EB;stroke-width:1;"/><polygon points="442.517,1939.922,432.517,1943.922,442.517,1947.922" fill="#2563EB" style="stroke:#2563EB;stroke-width:1;stroke-linejoin:miter;stroke-miterlimit:10;"/><text x="438.517" y="1926.092" fill="#475569" font-size="12" textLength="425.186">renderizarLinhaFFTSVG() -> Desenha as 3 curvas espectrais contínuas</text><line x1="431.517" y1="1971.891" x2="473.517" y2="1971.891" style="stroke:#2563EB;stroke-width:1;"/><line x1="473.517" y1="1971.891" x2="473.517" y2="1984.891" style="stroke:#2563EB;stroke-width:1;"/><line x1="432.517" y1="1984.891" x2="473.517" y2="1984.891" style="stroke:#2563EB;stroke-width:1;"/><polygon points="442.517,1980.891,432.517,1984.891,442.517,1988.891" fill="#2563EB" style="stroke:#2563EB;stroke-width:1;stroke-linejoin:miter;stroke-miterlimit:10;"/><text x="438.517" y="1967.061" fill="#475569" font-size="12" textLength="181.172">Libera botão "Refazer Exame"</text><polygon points="84.084,2008.859,74.084,2012.859,84.084,2016.859" fill="#2563EB" style="stroke:#2563EB;stroke-width:1;stroke-linejoin:miter;stroke-miterlimit:10;"/><line x1="78.084" y1="2012.859" x2="420.517" y2="2012.859" style="stroke:#2563EB;stroke-width:1;stroke-dasharray:2,2;"/><text x="90.084" y="2008.029" fill="#475569" font-size="12" textLength="324.434">Mostra os gráficos completos e métricas finais na tela</text><?plantuml-src dLVTRk985hxtKnon5m5DXX3oqmpIh6ICdJ3YRp3ftHsjX0gxe4knNUwgCfjar5TxiTfNsAjfxSLgHfghUGHUR4wL3HW8arKZ1PogKz_v-ywfO_d8afG84eDKpn75Ry42bSMHPPt1j_Y1iTrtfpPqNN164zV7_oSss6DyT8TJU_slzJz7C5t_snds71kgJj-rXs1FdFlUr7Mc3nEtPc0ikLNK8S7ZKl0i2HqUSG5_yiodBC6VZeLQdkqv1q9SX5GK0awdU-DUMYK94YZS-D42_1pXNRfNTilEzyembzrhjziownvFrBw9crMVlL2ulB8-bTNXjs81IqcYJYbrFU-sWDbJUjLfDRtRGwKb4qyg9KBmVnJgYcFDczihjtC8TltkvkRscmEmvZwOf1ypcWIqmEkp1UspXEwPUdlzxhhLsTy_ojMbT-FbkkvmFJsLp9r0MSCtrpR6OxTvJmbk7iUowRQynawiv6l3ktpNjFUtIWuNn7P6W_5eY2H6KXkAvdof3DO_XopWS06Zb0eISb418c50zQfbpVaJL7g9ec91C5H_eNDaVSGePjrd8QrLZDuo6If3ig9B3VJtfCgIa3xLFwWugXbOJw1n5ar2GE02tQTYnL3S40YtNe7q8Y8VGGjIZIhDGprzBa3rxWvqxsH7y4SgOF3zT8e71rn-p9XIF3-OR-uVy6aYqPOUr_AkFxvgvhBuQ5aOnrw2eYHYBsJzl_L_EOGS0o4LZGdaGMKhecXXKsxtrtykDBMHj0aD5864m9WBVBXijQw0eWB9SEsCFf6ONaX5L2RFSBrO236Syco7het1lpBoE9j7B22GdmMMcmbdzjs3FUdQm-u8yU833LOH7iGnfhPXGbEqPGjJFhxpff2rLMO20HIbCGxBYCz9r2xEpgXChvhmBLHs61KJGZkWKd9O_mGxOc7iSiePVCsITYv7u8DIQVlY8k81YJvmgTetZKR3CZ8bO-xSALniJDnXJ2Yo72DxFntquIjmV1-_loChuWU2fGgg3pqWEgerAwG7sJkHRbT7y5M3ksp9T78vxgDWIW9TA1Jp69ZSOFmhEQ38KIebmfZAs7cL8tOYZasA4MIsGlNd4D85zY10gmCUSwZSJUptUMGF0p8U-HWHah8BLgZy4IhQjDd6haeRAlLwlGAVJlAsmEgpE4KRiiK2oO9bmfOSdIfiCOoQqNX6aX2V4iKnwLEHqMFwRqXQwU7zsRCd5OmLgFLlgOvZGKtq2u5ucPj8zHqpY_qTnkcaV-UFXjfhcHd6eRyApK9tNqrrd_CKVT8N2yKiLYzly8fOOWlcieRUZdaKiMIf9VoyEChrNgf8OwqT8REtbS4qpnFD25pRfEnK1Pzj1BweOBU7BIlI3jaGa910gz689LJTv6D6T8PUIrgUjLf-QxvMNffCkHuZSn13S-oDL9HRmpcG6CjP43aJDA1p5X9v_ffXdmpqKSxspInQngObTKYur8M73LTdGEYqRTJfxgjeHFILOUrbhKZzLX1JDnW_085cet7_WXV2NKP4g2jyKmoRpEBYn1xK396cWYGoPbAQXa6XgxitTAaCS7unLwFXphxY98Wo1YNEwPCc62TvuWxVztIgPrsxE_A_Y2q74DQXBZTPOVCPa-U8an0wB5b_5en35SEJ1KgRkC0T9U6lv_2tS_YXLZAYkBHAUTD5Sj8ax4fSKGdpGea9WC5ugpjXP6biZcEFUjOOskZSn7g6qrxmMDKLdF8qYqYEESlpP_BbuTMxw_0KfoYy7ufsJy4ME3AiU2bZHudeZwRkp1aDdVv3xmlBzW3Yo4VtYGOP-YT9j29YbliGo1KwXa9tkjUGmj0wBck6XapY17SShDDDsoEHfAytnx7WvZREHGUu6Qy_Azssgrr_hACxmMgYOXj63DSRFGIgw_z4Yk4j5kMTLvdHo5Y6NLuNnFhNaDTEfFzaZpbshGqBxTavu6ttQlS_QQcWCelK_qF2_leNuDiSEFvxM9fn-dXgIWrf9ZJcMuvr7HWj5fBYFE9hCWAQZGL0m4pdE9iSWZWa2ZINSL-_mcAhgjen0giiHFh7vfJKxKzaBtaC9D9Vm0zKyDf9SddU54iR9-7d-cAXQlbrHP-m5J812u7lI-jV4Xmbv162noAKWhaEELOmZzQ_BRMNrKRz1kvVu6jewjzZrHEQzsi_cnTTTudLOzgVwPF618uisH9hnIJs-3TOW4D2YgsSwmTOwHrg-WdIDiKfIW_RJCS7FVv3EkJGcsWxaPxJ5-XOReeJhNzDj9jsfd0gKMWZkbyT4u4lcP8d-5BbIabroABQ4QhO58p0ryeFPAfDyz_VvHMjUnekwZUFAmWoiS87OppcGhu5XLxz8H1UlrXg6adNcK8dCd8CscTptLRooHCg4xeWBtGxk1RIA9wFmMqOcFG19cqfrfynIbnkyw1Z7M-vkiZ3lxc6omdGgBy3?></g></svg>